<svg width="52" height="15" viewBox="0 0 52 15" fill="none" xmlns="http://www.w3.org/2000/svg">
<path d="M2.54403 14H0.447443L5.15838 0.909091H7.44034L12.1513 14H10.0547L6.35369 3.28693H6.25142L2.54403 14ZM2.8956 8.87358H9.69673V10.5355H2.8956V8.87358ZM14.0417 14V0.909091H15.9529V5.77344H16.068C16.1788 5.56889 16.3386 5.33239 16.5474 5.06392C16.7562 4.79545 17.046 4.56108 17.4167 4.3608C17.7875 4.15625 18.2775 4.05398 18.8869 4.05398C19.6795 4.05398 20.3869 4.25426 21.0091 4.65483C21.6312 5.0554 22.1191 5.63281 22.4728 6.38707C22.8308 7.14133 23.0098 8.04901 23.0098 9.11009C23.0098 10.1712 22.8329 11.081 22.4792 11.8395C22.1255 12.5937 21.6397 13.1754 21.0218 13.5845C20.4039 13.9893 19.6987 14.1918 18.9061 14.1918C18.3095 14.1918 17.8216 14.0916 17.4423 13.8913C17.0673 13.6911 16.7733 13.4567 16.5602 13.1882C16.3471 12.9197 16.1831 12.6811 16.068 12.4723H15.9082V14H14.0417ZM15.9146 9.09091C15.9146 9.78125 16.0147 10.3864 16.215 10.9062C16.4153 11.4261 16.7051 11.8331 17.0843 12.1271C17.4636 12.4169 17.9281 12.5618 18.4778 12.5618C19.0488 12.5618 19.5261 12.4105 19.9096 12.108C20.2931 11.8011 20.5829 11.3857 20.7789 10.8615C20.9792 10.3374 21.0794 9.74716 21.0794 9.09091C21.0794 8.44318 20.9814 7.86151 20.7853 7.34588C20.5936 6.83026 20.3038 6.4233 19.916 6.125C19.5325 5.8267 19.0531 5.67756 18.4778 5.67756C17.9238 5.67756 17.4551 5.82031 17.0716 6.10582C16.6923 6.39133 16.4047 6.78977 16.2086 7.30114C16.0126 7.8125 15.9146 8.40909 15.9146 9.09091ZM29.2915 14.1982C28.3711 14.1982 27.5678 13.9872 26.8817 13.5653C26.1957 13.1435 25.663 12.5533 25.2837 11.7947C24.9045 11.0362 24.7148 10.1499 24.7148 9.13565C24.7148 8.11719 24.9045 7.22656 25.2837 6.46378C25.663 5.70099 26.1957 5.10866 26.8817 4.68679C27.5678 4.26491 28.3711 4.05398 29.2915 4.05398C30.212 4.05398 31.0153 4.26491 31.7013 4.68679C32.3874 5.10866 32.9201 5.70099 33.2994 6.46378C33.6786 7.22656 33.8683 8.11719 33.8683 9.13565C33.8683 10.1499 33.6786 11.0362 33.2994 11.7947C32.9201 12.5533 32.3874 13.1435 31.7013 13.5653C31.0153 13.9872 30.212 14.1982 29.2915 14.1982ZM29.2979 12.5938C29.8945 12.5938 30.3888 12.4361 30.7809 12.1207C31.1729 11.8054 31.4627 11.3857 31.6502 10.8615C31.842 10.3374 31.9379 9.75994 31.9379 9.12926C31.9379 8.50284 31.842 7.92756 31.6502 7.40341C31.4627 6.875 31.1729 6.45099 30.7809 6.13139C30.3888 5.81179 29.8945 5.65199 29.2979 5.65199C28.6971 5.65199 28.1985 5.81179 27.8022 6.13139C27.4102 6.45099 27.1183 6.875 26.9265 7.40341C26.739 7.92756 26.6452 8.50284 26.6452 9.12926C26.6452 9.75994 26.739 10.3374 26.9265 10.8615C27.1183 11.3857 27.4102 11.8054 27.8022 12.1207C28.1985 12.4361 28.6971 12.5938 29.2979 12.5938ZM42.2211 9.92827V4.18182H44.1387V14H42.2594V12.2997H42.1571C41.9313 12.8239 41.5691 13.2607 41.0705 13.6101C40.5762 13.9553 39.9604 14.1278 39.2232 14.1278C38.5925 14.1278 38.0343 13.9893 37.5485 13.7124C37.0669 13.4311 36.6877 13.0156 36.4107 12.4659C36.138 11.9162 36.0016 11.2365 36.0016 10.4268V4.18182H37.9128V10.1967C37.9128 10.8658 38.0982 11.3984 38.4689 11.7947C38.8397 12.1911 39.3212 12.3892 39.9135 12.3892C40.2715 12.3892 40.6273 12.2997 40.981 12.1207C41.339 11.9418 41.6351 11.6712 41.8695 11.3089C42.1081 10.9467 42.2253 10.4865 42.2211 9.92827ZM51.2898 4.18182V5.71591H45.9268V4.18182H51.2898ZM47.3651 1.82955H49.2763V11.1172C49.2763 11.4879 49.3317 11.767 49.4425 11.9545C49.5533 12.1378 49.696 12.2635 49.8707 12.3317C50.0497 12.3956 50.2436 12.4276 50.4524 12.4276C50.6058 12.4276 50.7401 12.4169 50.8551 12.3956C50.9702 12.3743 51.0597 12.3572 51.1236 12.3445L51.4688 13.9233C51.358 13.9659 51.2003 14.0085 50.9957 14.0511C50.7912 14.098 50.5355 14.1236 50.2287 14.1278C49.7259 14.1364 49.2571 14.0469 48.8224 13.8594C48.3878 13.6719 48.0362 13.3821 47.7678 12.9901C47.4993 12.598 47.3651 12.1058 47.3651 11.5135V1.82955Z" fill="white"/>
</svg>
