<svg width="57" height="15" viewBox="0 0 57 15" fill="none" xmlns="http://www.w3.org/2000/svg">
<path d="M2.54403 14H0.447443L5.15838 0.909091H7.44034L12.1513 14H10.0547L6.35369 3.28693H6.25142L2.54403 14ZM2.8956 8.87358H9.69673V10.5355H2.8956V8.87358ZM13.8883 14V4.18182H15.7356V5.74148H15.8379C16.0169 5.21307 16.3322 4.79758 16.7839 4.49503C17.2399 4.18821 17.7555 4.0348 18.3308 4.0348C18.4501 4.0348 18.5907 4.03906 18.7527 4.04759C18.9189 4.05611 19.0488 4.06676 19.1426 4.07955V5.90767C19.0659 5.88636 18.9295 5.86293 18.7335 5.83736C18.5375 5.80753 18.3414 5.79261 18.1454 5.79261C17.6937 5.79261 17.291 5.88849 16.9373 6.08026C16.5879 6.26776 16.3109 6.52983 16.1064 6.86648C15.9018 7.19886 15.7995 7.57812 15.7995 8.00426V14H13.8883ZM25.9597 4.18182V5.71591H20.5968V4.18182H25.9597ZM22.035 1.82955H23.9462V11.1172C23.9462 11.4879 24.0016 11.767 24.1124 11.9545C24.2232 12.1378 24.3659 12.2635 24.5407 12.3317C24.7196 12.3956 24.9135 12.4276 25.1223 12.4276C25.2757 12.4276 25.41 12.4169 25.525 12.3956C25.6401 12.3743 25.7296 12.3572 25.7935 12.3445L26.1387 13.9233C26.0279 13.9659 25.8702 14.0085 25.6657 14.0511C25.4611 14.098 25.2054 14.1236 24.8986 14.1278C24.3958 14.1364 23.927 14.0469 23.4924 13.8594C23.0577 13.6719 22.7061 13.3821 22.4377 12.9901C22.1692 12.598 22.035 12.1058 22.035 11.5135V1.82955ZM28.0739 14V4.18182H29.9851V14H28.0739ZM29.0391 2.6669C28.7067 2.6669 28.4212 2.55611 28.1825 2.33452C27.9482 2.10866 27.831 1.8402 27.831 1.52912C27.831 1.21378 27.9482 0.945312 28.1825 0.723721C28.4212 0.497869 28.7067 0.384943 29.0391 0.384943C29.3714 0.384943 29.6548 0.497869 29.8892 0.723721C30.1278 0.945312 30.2472 1.21378 30.2472 1.52912C30.2472 1.8402 30.1278 2.10866 29.8892 2.33452C29.6548 2.55611 29.3714 2.6669 29.0391 2.6669ZM39.9135 6.57884L38.1813 6.88565C38.1088 6.66406 37.9938 6.45312 37.8361 6.25284C37.6827 6.05256 37.4739 5.88849 37.2097 5.76065C36.9455 5.63281 36.6152 5.56889 36.2189 5.56889C35.6777 5.56889 35.226 5.69034 34.8638 5.93324C34.5016 6.17187 34.3205 6.48082 34.3205 6.86009C34.3205 7.18821 34.4419 7.45241 34.6848 7.6527C34.9277 7.85298 35.3198 8.01705 35.861 8.14489L37.4206 8.50284C38.324 8.71165 38.9973 9.03338 39.4405 9.46804C39.8837 9.9027 40.1053 10.4673 40.1053 11.1619C40.1053 11.75 39.9348 12.2741 39.5939 12.7344C39.2573 13.1903 38.7864 13.5483 38.1813 13.8082C37.5804 14.0682 36.8837 14.1982 36.0911 14.1982C34.9917 14.1982 34.0946 13.9638 33.4 13.495C32.7054 13.022 32.2793 12.3509 32.1216 11.4815L33.9689 11.2003C34.084 11.6818 34.3205 12.0462 34.6784 12.2933C35.0364 12.5362 35.503 12.6577 36.0783 12.6577C36.7047 12.6577 37.2054 12.5277 37.5804 12.2678C37.9554 12.0036 38.1429 11.6818 38.1429 11.3026C38.1429 10.9957 38.0279 10.7379 37.7978 10.5291C37.5719 10.3203 37.2246 10.1626 36.7559 10.0561L35.0939 9.69176C34.1777 9.48295 33.5002 9.15057 33.0613 8.6946C32.6266 8.23864 32.4093 7.66122 32.4093 6.96236C32.4093 6.38281 32.5712 5.87571 32.8951 5.44105C33.2189 5.00639 33.6664 4.66761 34.2374 4.42472C34.8084 4.17756 35.4625 4.05398 36.1998 4.05398C37.2608 4.05398 38.0961 4.28409 38.7054 4.74432C39.3148 5.20028 39.7175 5.81179 39.9135 6.57884ZM46.7898 4.18182V5.71591H41.4268V4.18182H46.7898ZM42.8651 1.82955H44.7763V11.1172C44.7763 11.4879 44.8317 11.767 44.9425 11.9545C45.0533 12.1378 45.196 12.2635 45.3707 12.3317C45.5497 12.3956 45.7436 12.4276 45.9524 12.4276C46.1058 12.4276 46.2401 12.4169 46.3551 12.3956C46.4702 12.3743 46.5597 12.3572 46.6236 12.3445L46.9688 13.9233C46.858 13.9659 46.7003 14.0085 46.4957 14.0511C46.2912 14.098 46.0355 14.1236 45.7287 14.1278C45.2259 14.1364 44.7571 14.0469 44.3224 13.8594C43.8878 13.6719 43.5362 13.3821 43.2678 12.9901C42.9993 12.598 42.8651 12.1058 42.8651 11.5135V1.82955ZM56.103 6.57884L54.3707 6.88565C54.2983 6.66406 54.1832 6.45312 54.0256 6.25284C53.8722 6.05256 53.6634 5.88849 53.3991 5.76065C53.1349 5.63281 52.8047 5.56889 52.4084 5.56889C51.8672 5.56889 51.4155 5.69034 51.0533 5.93324C50.6911 6.17187 50.5099 6.48082 50.5099 6.86009C50.5099 7.18821 50.6314 7.45241 50.8743 7.6527C51.1172 7.85298 51.5092 8.01705 52.0504 8.14489L53.6101 8.50284C54.5135 8.71165 55.1868 9.03338 55.63 9.46804C56.0732 9.9027 56.2947 10.4673 56.2947 11.1619C56.2947 11.75 56.1243 12.2741 55.7834 12.7344C55.4467 13.1903 54.9759 13.5483 54.3707 13.8082C53.7699 14.0682 53.0732 14.1982 52.2805 14.1982C51.1811 14.1982 50.2841 13.9638 49.5895 13.495C48.8949 13.022 48.4688 12.3509 48.3111 11.4815L50.1584 11.2003C50.2734 11.6818 50.5099 12.0462 50.8679 12.2933C51.2259 12.5362 51.6925 12.6577 52.2678 12.6577C52.8942 12.6577 53.3949 12.5277 53.7699 12.2678C54.1449 12.0036 54.3324 11.6818 54.3324 11.3026C54.3324 10.9957 54.2173 10.7379 53.9872 10.5291C53.7614 10.3203 53.4141 10.1626 52.9453 10.0561L51.2834 9.69176C50.3672 9.48295 49.6896 9.15057 49.2507 8.6946C48.8161 8.23864 48.5987 7.66122 48.5987 6.96236C48.5987 6.38281 48.7607 5.87571 49.0845 5.44105C49.4084 5.00639 49.8558 4.66761 50.4268 4.42472C50.9979 4.17756 51.652 4.05398 52.3892 4.05398C53.4503 4.05398 54.2855 4.28409 54.8949 4.74432C55.5043 5.20028 55.907 5.81179 56.103 6.57884Z" fill="white"/>
</svg>
