<svg width="166" height="24" viewBox="0 0 166 24" fill="none" xmlns="http://www.w3.org/2000/svg">
<path d="M7.16818 23H0.690909L7.98864 0.890909H16.1932L23.4909 23H17.0136L12.1773 6.97955H12.0045L7.16818 23ZM5.95909 14.2773H18.1364V18.7682H5.95909V14.2773ZM25.6203 23V0.890909H35.1635C36.8044 0.890909 38.2402 1.18958 39.4709 1.78693C40.7016 2.38428 41.6588 3.24432 42.3425 4.36705C43.0262 5.48977 43.368 6.83561 43.368 8.40455C43.368 9.98788 43.0154 11.3229 42.3101 12.4097C41.612 13.4964 40.6296 14.3169 39.3629 14.871C38.1035 15.4252 36.6317 15.7023 34.9476 15.7023H29.2476V11.0386H33.7385C34.4438 11.0386 35.0447 10.9523 35.5413 10.7795C36.0451 10.5996 36.4302 10.3153 36.6964 9.9267C36.9699 9.53807 37.1067 9.03068 37.1067 8.40455C37.1067 7.77121 36.9699 7.25663 36.6964 6.8608C36.4302 6.45777 36.0451 6.16269 35.5413 5.97557C35.0447 5.78125 34.4438 5.68409 33.7385 5.68409H31.6226V23H25.6203ZM38.5749 12.8523L44.1021 23H37.5817L32.1839 12.8523H38.5749ZM45.322 5.72727V0.890909H64.5379V5.72727H57.8879V23H51.972V5.72727H45.322ZM73.1473 0.890909H79.0632V16.0477C79.056 17.4871 78.6926 18.7538 77.9729 19.8477C77.2604 20.9345 76.2744 21.7837 75.0149 22.3955C73.7626 23 72.3197 23.3023 70.6859 23.3023C69.2681 23.3023 67.9727 23.0576 66.7996 22.5682C65.6265 22.0716 64.6909 21.2943 63.9928 20.2364C63.2947 19.1712 62.9492 17.7894 62.9564 16.0909H68.9587C68.9803 16.6451 69.0738 17.1129 69.2393 17.4943C69.4121 17.8758 69.6496 18.1636 69.9518 18.358C70.2613 18.5451 70.6356 18.6386 71.0746 18.6386C71.5208 18.6386 71.895 18.5415 72.1973 18.3472C72.5068 18.1528 72.7407 17.865 72.899 17.4835C73.0573 17.0949 73.1401 16.6163 73.1473 16.0477V0.890909ZM94.9919 0.890909H100.994V15.0545C100.994 16.7386 100.591 18.196 99.7851 19.4267C98.9862 20.6502 97.8707 21.5966 96.4385 22.2659C95.0063 22.928 93.3438 23.2591 91.451 23.2591C89.5438 23.2591 87.8741 22.928 86.4419 22.2659C85.0097 21.5966 83.8942 20.6502 83.0953 19.4267C82.3036 18.196 81.9078 16.7386 81.9078 15.0545V0.890909H87.9101V14.5364C87.9101 15.2201 88.0612 15.8318 88.3635 16.3716C88.6658 16.9042 89.0832 17.3216 89.6158 17.6239C90.1555 17.9261 90.7673 18.0773 91.451 18.0773C92.1419 18.0773 92.7536 17.9261 93.2862 17.6239C93.8188 17.3216 94.2362 16.9042 94.5385 16.3716C94.8408 15.8318 94.9919 15.2201 94.9919 14.5364V0.890909ZM122.976 0.890909V23H117.967L109.979 11.3841H109.849V23H103.847V0.890909H108.942L116.801 12.4636H116.974V0.890909H122.976ZM125.816 23V0.890909H131.818V9.82955H132.12L138.77 0.890909H145.766L138.295 10.7364L145.938 23H138.77L133.804 14.7091L131.818 17.3V23H125.816ZM159.168 7.8C159.111 7.0803 158.841 6.51894 158.359 6.11591C157.884 5.71288 157.16 5.51136 156.189 5.51136C155.57 5.51136 155.062 5.58693 154.666 5.73807C154.278 5.88201 153.99 6.07992 153.803 6.33182C153.616 6.58371 153.519 6.87159 153.511 7.19545C153.497 7.46174 153.544 7.70284 153.652 7.91875C153.767 8.12746 153.947 8.31818 154.191 8.49091C154.436 8.65644 154.749 8.80758 155.131 8.94432C155.512 9.08106 155.966 9.20341 156.491 9.31136L158.305 9.7C159.528 9.95909 160.575 10.3009 161.446 10.7256C162.317 11.1502 163.029 11.6504 163.584 12.2261C164.138 12.7947 164.544 13.4352 164.803 14.1477C165.07 14.8602 165.206 15.6375 165.214 16.4795C165.206 17.9333 164.843 19.164 164.123 20.1716C163.404 21.1792 162.374 21.9456 161.036 22.471C159.704 22.9964 158.103 23.2591 156.232 23.2591C154.31 23.2591 152.633 22.9748 151.201 22.4063C149.776 21.8377 148.668 20.9633 147.876 19.783C147.092 18.5955 146.696 17.0769 146.689 15.2273H152.389C152.425 15.9038 152.594 16.4723 152.896 16.933C153.198 17.3936 153.623 17.7426 154.17 17.9801C154.724 18.2176 155.383 18.3364 156.145 18.3364C156.786 18.3364 157.322 18.2572 157.754 18.0989C158.186 17.9405 158.513 17.721 158.736 17.4403C158.959 17.1597 159.075 16.8394 159.082 16.4795C159.075 16.1413 158.963 15.8462 158.747 15.5943C158.538 15.3352 158.193 15.1049 157.711 14.9034C157.229 14.6947 156.577 14.5004 155.757 14.3205L153.555 13.8455C151.597 13.4208 150.053 12.7119 148.923 11.7188C147.801 10.7184 147.243 9.35455 147.25 7.62727C147.243 6.22386 147.617 4.99678 148.373 3.94602C149.136 2.88807 150.19 2.06401 151.536 1.47386C152.889 0.883712 154.44 0.588636 156.189 0.588636C157.973 0.588636 159.517 0.88731 160.82 1.48466C162.123 2.08201 163.127 2.92405 163.832 4.0108C164.544 5.09034 164.904 6.35341 164.911 7.8H159.168Z" fill="white"/>
</svg>
