<svg width="66" height="15" viewBox="0 0 66 15" fill="none" xmlns="http://www.w3.org/2000/svg">
<path d="M11.3111 5.16619H9.31676C9.24006 4.74006 9.0973 4.36506 8.88849 4.04119C8.67969 3.71733 8.42401 3.44247 8.12145 3.21662C7.81889 2.99077 7.48011 2.82031 7.10511 2.70526C6.73438 2.5902 6.3402 2.53267 5.92259 2.53267C5.16832 2.53267 4.4929 2.7223 3.89631 3.10156C3.30398 3.48082 2.83523 4.03693 2.49006 4.76989C2.14915 5.50284 1.97869 6.39773 1.97869 7.45455C1.97869 8.51989 2.14915 9.41903 2.49006 10.152C2.83523 10.8849 3.30611 11.4389 3.9027 11.8139C4.49929 12.1889 5.17045 12.3764 5.91619 12.3764C6.32955 12.3764 6.72159 12.321 7.09233 12.2102C7.46733 12.0952 7.80611 11.9268 8.10866 11.7053C8.41122 11.4837 8.6669 11.2131 8.87571 10.8935C9.08878 10.5696 9.2358 10.1989 9.31676 9.78125L11.3111 9.78764C11.2045 10.4311 10.9979 11.0234 10.6911 11.5646C10.3885 12.1016 9.99858 12.5661 9.52131 12.9581C9.0483 13.3459 8.5071 13.6463 7.89773 13.8594C7.28835 14.0724 6.62358 14.179 5.90341 14.179C4.76989 14.179 3.75994 13.9105 2.87358 13.3736C1.98722 12.8324 1.28835 12.0589 0.776989 11.0533C0.269886 10.0476 0.0163353 8.84801 0.0163353 7.45455C0.0163353 6.05682 0.272017 4.85724 0.783381 3.85582C1.29474 2.85014 1.99361 2.07883 2.87997 1.5419C3.76634 1.00071 4.77415 0.730113 5.90341 0.730113C6.59801 0.730113 7.24574 0.830255 7.84659 1.03054C8.4517 1.22656 8.99503 1.51633 9.47656 1.89986C9.9581 2.27912 10.3565 2.74361 10.6719 3.29332C10.9872 3.83878 11.2003 4.46307 11.3111 5.16619ZM16.3784 14.2173C15.7562 14.2173 15.1937 14.1023 14.6909 13.8722C14.188 13.6378 13.7896 13.299 13.4956 12.8558C13.2058 12.4126 13.0609 11.8693 13.0609 11.2259C13.0609 10.6719 13.1674 10.2159 13.3805 9.85795C13.5936 9.5 13.8812 9.21662 14.2434 9.00781C14.6056 8.79901 15.0105 8.64134 15.4579 8.5348C15.9054 8.42827 16.3613 8.3473 16.8258 8.2919C17.4139 8.22372 17.8912 8.16832 18.2576 8.12571C18.6241 8.07884 18.8904 8.00426 19.0566 7.90199C19.2228 7.79972 19.3059 7.63352 19.3059 7.40341V7.35866C19.3059 6.80043 19.1483 6.3679 18.8329 6.06108C18.5218 5.75426 18.0574 5.60085 17.4395 5.60085C16.796 5.60085 16.2889 5.74361 15.9181 6.02912C15.5517 6.31037 15.2981 6.62358 15.1575 6.96875L13.3613 6.55966C13.5744 5.96307 13.8855 5.48153 14.2946 5.11506C14.7079 4.74432 15.1831 4.47585 15.72 4.30966C16.2569 4.1392 16.8216 4.05398 17.4139 4.05398C17.8059 4.05398 18.2214 4.10085 18.6603 4.1946C19.1035 4.28409 19.5169 4.45028 19.9004 4.69318C20.2882 4.93608 20.6056 5.28338 20.8528 5.73509C21.1 6.18253 21.2235 6.7642 21.2235 7.48011V14H19.3571V12.6577H19.2804C19.1568 12.9048 18.9714 13.1477 18.7243 13.3864C18.4771 13.625 18.1596 13.8232 17.7718 13.9808C17.3841 14.1385 16.9196 14.2173 16.3784 14.2173ZM16.7939 12.6832C17.3223 12.6832 17.774 12.5788 18.149 12.37C18.5282 12.1612 18.8159 11.8885 19.0119 11.5518C19.2122 11.2109 19.3123 10.8466 19.3123 10.4588V9.19318C19.2441 9.26136 19.112 9.32528 18.916 9.38494C18.7243 9.44034 18.5048 9.48935 18.2576 9.53196C18.0105 9.57031 17.7697 9.60653 17.5353 9.64062C17.301 9.67045 17.1049 9.69602 16.9473 9.71733C16.5765 9.7642 16.2377 9.84304 15.9309 9.95384C15.6284 10.0646 15.3855 10.2244 15.2022 10.4332C15.0233 10.6378 14.9338 10.9105 14.9338 11.2514C14.9338 11.7244 15.1085 12.0824 15.4579 12.3253C15.8074 12.5639 16.2527 12.6832 16.7939 12.6832ZM23.7692 14V4.18182H25.6165V5.74148H25.7188C25.8977 5.21307 26.2131 4.79758 26.6648 4.49503C27.1207 4.18821 27.6364 4.0348 28.2116 4.0348C28.331 4.0348 28.4716 4.03906 28.6335 4.04759C28.7997 4.05611 28.9297 4.06676 29.0234 4.07955V5.90767C28.9467 5.88636 28.8104 5.86293 28.6143 5.83736C28.4183 5.80753 28.2223 5.79261 28.0263 5.79261C27.5746 5.79261 27.1719 5.88849 26.8182 6.08026C26.4688 6.26776 26.1918 6.52983 25.9872 6.86648C25.7827 7.19886 25.6804 7.57812 25.6804 8.00426V14H23.7692ZM34.5574 14.1982C33.59 14.1982 32.7569 13.9915 32.0581 13.5781C31.3635 13.1605 30.8265 12.5746 30.4473 11.8203C30.0723 11.0618 29.8848 10.1733 29.8848 9.15483C29.8848 8.14915 30.0723 7.26278 30.4473 6.49574C30.8265 5.72869 31.3549 5.12997 32.0325 4.69957C32.7143 4.26918 33.5112 4.05398 34.4231 4.05398C34.9771 4.05398 35.514 4.1456 36.0339 4.32884C36.5538 4.51207 37.0204 4.79972 37.4338 5.19176C37.8471 5.58381 38.1731 6.09304 38.4118 6.71946C38.6504 7.34162 38.7697 8.09801 38.7697 8.98864V9.66619H30.965V8.23438H36.8968C36.8968 7.73153 36.7946 7.28622 36.59 6.89844C36.3855 6.50639 36.0978 6.19744 35.7271 5.97159C35.3606 5.74574 34.9302 5.63281 34.4359 5.63281C33.899 5.63281 33.4302 5.76491 33.0297 6.02912C32.6333 6.28906 32.3265 6.62997 32.1092 7.05185C31.8961 7.46946 31.7896 7.9233 31.7896 8.41335V9.53196C31.7896 10.1882 31.9047 10.7464 32.1348 11.2067C32.3691 11.6669 32.6951 12.0185 33.1127 12.2614C33.5304 12.5 34.0183 12.6193 34.5765 12.6193C34.9387 12.6193 35.269 12.5682 35.5673 12.4659C35.8656 12.3594 36.1234 12.2017 36.3407 11.9929C36.5581 11.7841 36.7243 11.5263 36.8393 11.2195L38.6483 11.5455C38.5034 12.0781 38.2434 12.5447 37.8684 12.9453C37.4977 13.3416 37.0311 13.6506 36.4686 13.8722C35.9103 14.0895 35.2733 14.1982 34.5574 14.1982ZM45.1218 14.1982C44.1545 14.1982 43.3214 13.9915 42.6225 13.5781C41.9279 13.1605 41.391 12.5746 41.0117 11.8203C40.6367 11.0618 40.4492 10.1733 40.4492 9.15483C40.4492 8.14915 40.6367 7.26278 41.0117 6.49574C41.391 5.72869 41.9194 5.12997 42.5969 4.69957C43.2788 4.26918 44.0756 4.05398 44.9876 4.05398C45.5415 4.05398 46.0785 4.1456 46.5984 4.32884C47.1183 4.51207 47.5849 4.79972 47.9982 5.19176C48.4116 5.58381 48.7376 6.09304 48.9762 6.71946C49.2148 7.34162 49.3342 8.09801 49.3342 8.98864V9.66619H41.5295V8.23438H47.4613C47.4613 7.73153 47.359 7.28622 47.1545 6.89844C46.9499 6.50639 46.6623 6.19744 46.2915 5.97159C45.9251 5.74574 45.4947 5.63281 45.0004 5.63281C44.4634 5.63281 43.9947 5.76491 43.5941 6.02912C43.1978 6.28906 42.891 6.62997 42.6737 7.05185C42.4606 7.46946 42.354 7.9233 42.354 8.41335V9.53196C42.354 10.1882 42.4691 10.7464 42.6992 11.2067C42.9336 11.6669 43.2596 12.0185 43.6772 12.2614C44.0948 12.5 44.5827 12.6193 45.141 12.6193C45.5032 12.6193 45.8335 12.5682 46.1317 12.4659C46.43 12.3594 46.6879 12.2017 46.9052 11.9929C47.1225 11.7841 47.2887 11.5263 47.4038 11.2195L49.2127 11.5455C49.0678 12.0781 48.8079 12.5447 48.4329 12.9453C48.0621 13.3416 47.5955 13.6506 47.033 13.8722C46.4748 14.0895 45.8377 14.1982 45.1218 14.1982ZM51.4547 14V4.18182H53.302V5.74148H53.4043C53.5833 5.21307 53.8986 4.79758 54.3503 4.49503C54.8063 4.18821 55.3219 4.0348 55.8972 4.0348C56.0165 4.0348 56.1571 4.03906 56.3191 4.04759C56.4853 4.05611 56.6152 4.06676 56.709 4.07955V5.90767C56.6323 5.88636 56.4959 5.86293 56.2999 5.83736C56.1039 5.80753 55.9078 5.79261 55.7118 5.79261C55.2601 5.79261 54.8574 5.88849 54.5037 6.08026C54.1543 6.26776 53.8773 6.52983 53.6728 6.86648C53.4682 7.19886 53.3659 7.57812 53.3659 8.00426V14H51.4547ZM65.7202 6.57884L63.9879 6.88565C63.9155 6.66406 63.8004 6.45312 63.6428 6.25284C63.4893 6.05256 63.2805 5.88849 63.0163 5.76065C62.7521 5.63281 62.4219 5.56889 62.0256 5.56889C61.4844 5.56889 61.0327 5.69034 60.6705 5.93324C60.3082 6.17187 60.1271 6.48082 60.1271 6.86009C60.1271 7.18821 60.2486 7.45241 60.4915 7.6527C60.7344 7.85298 61.1264 8.01705 61.6676 8.14489L63.2273 8.50284C64.1307 8.71165 64.804 9.03338 65.2472 9.46804C65.6903 9.9027 65.9119 10.4673 65.9119 11.1619C65.9119 11.75 65.7415 12.2741 65.4006 12.7344C65.0639 13.1903 64.593 13.5483 63.9879 13.8082C63.3871 14.0682 62.6903 14.1982 61.8977 14.1982C60.7983 14.1982 59.9013 13.9638 59.2067 13.495C58.5121 13.022 58.0859 12.3509 57.9283 11.4815L59.7756 11.2003C59.8906 11.6818 60.1271 12.0462 60.4851 12.2933C60.843 12.5362 61.3097 12.6577 61.8849 12.6577C62.5114 12.6577 63.0121 12.5277 63.3871 12.2678C63.7621 12.0036 63.9496 11.6818 63.9496 11.3026C63.9496 10.9957 63.8345 10.7379 63.6044 10.5291C63.3786 10.3203 63.0312 10.1626 62.5625 10.0561L60.9006 9.69176C59.9844 9.48295 59.3068 9.15057 58.8679 8.6946C58.4332 8.23864 58.2159 7.66122 58.2159 6.96236C58.2159 6.38281 58.3778 5.87571 58.7017 5.44105C59.0256 5.00639 59.473 4.66761 60.044 4.42472C60.6151 4.17756 61.2692 4.05398 62.0064 4.05398C63.0675 4.05398 63.9027 4.28409 64.5121 4.74432C65.1214 5.20028 65.5241 5.81179 65.7202 6.57884Z" fill="white"/>
</svg>
