<svg width="81" height="18" viewBox="0 0 81 18" fill="none" xmlns="http://www.w3.org/2000/svg">
<path d="M11.3111 5.16619H9.31676C9.24006 4.74006 9.0973 4.36506 8.88849 4.04119C8.67969 3.71733 8.42401 3.44247 8.12145 3.21662C7.81889 2.99077 7.48011 2.82031 7.10511 2.70526C6.73438 2.5902 6.3402 2.53267 5.92259 2.53267C5.16832 2.53267 4.4929 2.7223 3.89631 3.10156C3.30398 3.48082 2.83523 4.03693 2.49006 4.76989C2.14915 5.50284 1.97869 6.39773 1.97869 7.45455C1.97869 8.51989 2.14915 9.41903 2.49006 10.152C2.83523 10.8849 3.30611 11.4389 3.9027 11.8139C4.49929 12.1889 5.17045 12.3764 5.91619 12.3764C6.32955 12.3764 6.72159 12.321 7.09233 12.2102C7.46733 12.0952 7.80611 11.9268 8.10866 11.7053C8.41122 11.4837 8.6669 11.2131 8.87571 10.8935C9.08878 10.5696 9.2358 10.1989 9.31676 9.78125L11.3111 9.78764C11.2045 10.4311 10.9979 11.0234 10.6911 11.5646C10.3885 12.1016 9.99858 12.5661 9.52131 12.9581C9.0483 13.3459 8.5071 13.6463 7.89773 13.8594C7.28835 14.0724 6.62358 14.179 5.90341 14.179C4.76989 14.179 3.75994 13.9105 2.87358 13.3736C1.98722 12.8324 1.28835 12.0589 0.776989 11.0533C0.269886 10.0476 0.0163353 8.84801 0.0163353 7.45455C0.0163353 6.05682 0.272017 4.85724 0.783381 3.85582C1.29474 2.85014 1.99361 2.07883 2.87997 1.5419C3.76634 1.00071 4.77415 0.730113 5.90341 0.730113C6.59801 0.730113 7.24574 0.830255 7.84659 1.03054C8.4517 1.22656 8.99503 1.51633 9.47656 1.89986C9.9581 2.27912 10.3565 2.74361 10.6719 3.29332C10.9872 3.83878 11.2003 4.46307 11.3111 5.16619ZM17.6568 14.1982C16.7363 14.1982 15.9331 13.9872 15.247 13.5653C14.5609 13.1435 14.0282 12.5533 13.649 11.7947C13.2697 11.0362 13.0801 10.1499 13.0801 9.13565C13.0801 8.11719 13.2697 7.22656 13.649 6.46378C14.0282 5.70099 14.5609 5.10866 15.247 4.68679C15.9331 4.26491 16.7363 4.05398 17.6568 4.05398C18.5772 4.05398 19.3805 4.26491 20.0666 4.68679C20.7527 5.10866 21.2853 5.70099 21.6646 6.46378C22.0439 7.22656 22.2335 8.11719 22.2335 9.13565C22.2335 10.1499 22.0439 11.0362 21.6646 11.7947C21.2853 12.5533 20.7527 13.1435 20.0666 13.5653C19.3805 13.9872 18.5772 14.1982 17.6568 14.1982ZM17.6632 12.5938C18.2598 12.5938 18.7541 12.4361 19.1461 12.1207C19.5382 11.8054 19.8279 11.3857 20.0154 10.8615C20.2072 10.3374 20.3031 9.75994 20.3031 9.12926C20.3031 8.50284 20.2072 7.92756 20.0154 7.40341C19.8279 6.875 19.5382 6.45099 19.1461 6.13139C18.7541 5.81179 18.2598 5.65199 17.6632 5.65199C17.0623 5.65199 16.5637 5.81179 16.1674 6.13139C15.7754 6.45099 15.4835 6.875 15.2917 7.40341C15.1042 7.92756 15.0105 8.50284 15.0105 9.12926C15.0105 9.75994 15.1042 10.3374 15.2917 10.8615C15.4835 11.3857 15.7754 11.8054 16.1674 12.1207C16.5637 12.4361 17.0623 12.5938 17.6632 12.5938ZM24.3668 14V4.18182H26.2013V5.77983H26.3228C26.5273 5.23864 26.8619 4.81676 27.3263 4.5142C27.7908 4.20739 28.3469 4.05398 28.9947 4.05398C29.6509 4.05398 30.2006 4.20739 30.6438 4.5142C31.0913 4.82102 31.4215 5.2429 31.6346 5.77983H31.7369C31.9712 5.25568 32.3441 4.83807 32.8555 4.52699C33.3668 4.21165 33.9762 4.05398 34.6836 4.05398C35.5742 4.05398 36.3008 4.3331 36.8633 4.89134C37.43 5.44957 37.7134 6.29119 37.7134 7.41619V14H35.8022V7.59517C35.8022 6.9304 35.6211 6.44886 35.2589 6.15057C34.8967 5.85227 34.4641 5.70312 33.9613 5.70312C33.3391 5.70312 32.8555 5.89489 32.5103 6.27841C32.1651 6.65767 31.9925 7.1456 31.9925 7.74219V14H30.0877V7.47372C30.0877 6.94105 29.9215 6.51278 29.5891 6.18892C29.2567 5.86506 28.8242 5.70312 28.2915 5.70312C27.9293 5.70312 27.5948 5.79901 27.288 5.99077C26.9854 6.17827 26.7404 6.44034 26.5529 6.77699C26.3697 7.11364 26.2781 7.50355 26.2781 7.94673V14H24.3668ZM40.275 17.6818V4.18182H42.1415V5.77344H42.3013C42.4121 5.56889 42.5719 5.33239 42.7807 5.06392C42.9895 4.79545 43.2793 4.56108 43.65 4.3608C44.0208 4.15625 44.5108 4.05398 45.1202 4.05398C45.9128 4.05398 46.6202 4.25426 47.2424 4.65483C47.8645 5.0554 48.3525 5.63281 48.7061 6.38707C49.0641 7.14133 49.2431 8.04901 49.2431 9.11009C49.2431 10.1712 49.0662 11.081 48.7125 11.8395C48.3588 12.5937 47.873 13.1754 47.2551 13.5845C46.6373 13.9893 45.932 14.1918 45.1394 14.1918C44.5428 14.1918 44.0549 14.0916 43.6756 13.8913C43.3006 13.6911 43.0066 13.4567 42.7935 13.1882C42.5804 12.9197 42.4164 12.6811 42.3013 12.4723H42.1863V17.6818H40.275ZM42.1479 9.09091C42.1479 9.78125 42.248 10.3864 42.4483 10.9062C42.6486 11.4261 42.9384 11.8331 43.3176 12.1271C43.6969 12.4169 44.1614 12.5618 44.7111 12.5618C45.2821 12.5618 45.7594 12.4105 46.1429 12.108C46.5265 11.8011 46.8162 11.3857 47.0123 10.8615C47.2125 10.3374 47.3127 9.74716 47.3127 9.09091C47.3127 8.44318 47.2147 7.86151 47.0186 7.34588C46.8269 6.83026 46.5371 6.4233 46.1493 6.125C45.7658 5.8267 45.2864 5.67756 44.7111 5.67756C44.1571 5.67756 43.6884 5.82031 43.3049 6.10582C42.9256 6.39133 42.638 6.78977 42.4419 7.30114C42.2459 7.8125 42.1479 8.40909 42.1479 9.09091ZM54.2417 14.2173C53.6195 14.2173 53.057 14.1023 52.5542 13.8722C52.0513 13.6378 51.6529 13.299 51.3588 12.8558C51.0691 12.4126 50.9242 11.8693 50.9242 11.2259C50.9242 10.6719 51.0307 10.2159 51.2438 9.85795C51.4569 9.5 51.7445 9.21662 52.1067 9.00781C52.4689 8.79901 52.8738 8.64134 53.3212 8.5348C53.7686 8.42827 54.2246 8.3473 54.6891 8.2919C55.2772 8.22372 55.7544 8.16832 56.1209 8.12571C56.4874 8.07884 56.7537 8.00426 56.9199 7.90199C57.0861 7.79972 57.1692 7.63352 57.1692 7.40341V7.35866C57.1692 6.80043 57.0115 6.3679 56.6962 6.06108C56.3851 5.75426 55.9206 5.60085 55.3027 5.60085C54.6593 5.60085 54.1522 5.74361 53.7814 6.02912C53.415 6.31037 53.1614 6.62358 53.0208 6.96875L51.2246 6.55966C51.4377 5.96307 51.7488 5.48153 52.1578 5.11506C52.5712 4.74432 53.0463 4.47585 53.5833 4.30966C54.1202 4.1392 54.6848 4.05398 55.2772 4.05398C55.6692 4.05398 56.0847 4.10085 56.5236 4.1946C56.9668 4.28409 57.3801 4.45028 57.7637 4.69318C58.1515 4.93608 58.4689 5.28338 58.7161 5.73509C58.9632 6.18253 59.0868 6.7642 59.0868 7.48011V14H57.2203V12.6577H57.1436C57.0201 12.9048 56.8347 13.1477 56.5875 13.3864C56.3404 13.625 56.0229 13.8232 55.6351 13.9808C55.2473 14.1385 54.7828 14.2173 54.2417 14.2173ZM54.6571 12.6832C55.1855 12.6832 55.6373 12.5788 56.0123 12.37C56.3915 12.1612 56.6792 11.8885 56.8752 11.5518C57.0755 11.2109 57.1756 10.8466 57.1756 10.4588V9.19318C57.1074 9.26136 56.9753 9.32528 56.7793 9.38494C56.5875 9.44034 56.3681 9.48935 56.1209 9.53196C55.8738 9.57031 55.633 9.60653 55.3986 9.64062C55.1642 9.67045 54.9682 9.69602 54.8105 9.71733C54.4398 9.7642 54.101 9.84304 53.7942 9.95384C53.4917 10.0646 53.2488 10.2244 53.0655 10.4332C52.8865 10.6378 52.7971 10.9105 52.7971 11.2514C52.7971 11.7244 52.9718 12.0824 53.3212 12.3253C53.6706 12.5639 54.1159 12.6832 54.6571 12.6832ZM63.5437 8.17045V14H61.6325V4.18182H63.467V5.77983H63.5884C63.8143 5.25994 64.168 4.84233 64.6495 4.52699C65.1353 4.21165 65.7468 4.05398 66.484 4.05398C67.1531 4.05398 67.739 4.1946 68.2418 4.47585C68.7447 4.75284 69.1346 5.16619 69.4116 5.71591C69.6886 6.26562 69.8271 6.94531 69.8271 7.75497V14H67.9158V7.98509C67.9158 7.27344 67.7305 6.71733 67.3597 6.31676C66.989 5.91193 66.4798 5.70952 65.832 5.70952C65.3888 5.70952 64.9947 5.8054 64.6495 5.99716C64.3086 6.18892 64.038 6.47017 63.8377 6.84091C63.6417 7.20739 63.5437 7.65057 63.5437 8.17045ZM73.2468 17.6818C72.9613 17.6818 72.7013 17.6584 72.467 17.6115C72.2326 17.5689 72.0579 17.522 71.9428 17.4709L72.4031 15.9048C72.7525 15.9986 73.0636 16.0391 73.3363 16.0263C73.609 16.0135 73.8498 15.9112 74.0586 15.7195C74.2717 15.5277 74.4592 15.2145 74.6211 14.7798L74.8576 14.1278L71.2653 4.18182H73.3107L75.7972 11.8011H75.8995L78.386 4.18182H80.4379L76.3917 15.3104C76.2042 15.8217 75.9656 16.2543 75.6758 16.608C75.386 16.9659 75.0408 17.2344 74.6403 17.4134C74.2397 17.5923 73.7752 17.6818 73.2468 17.6818Z" fill="white"/>
</svg>
