<svg width="49" height="15" viewBox="0 0 49 15" fill="none" xmlns="http://www.w3.org/2000/svg">
<path d="M0.43821 14V0.909091H2.41335V6.59801H8.93963V0.909091H10.9212V14H8.93963V8.2919H2.41335V14H0.43821ZM17.7798 14.1982C16.8594 14.1982 16.0561 13.9872 15.37 13.5653C14.6839 13.1435 14.1513 12.5533 13.772 11.7947C13.3928 11.0362 13.2031 10.1499 13.2031 9.13565C13.2031 8.11719 13.3928 7.22656 13.772 6.46378C14.1513 5.70099 14.6839 5.10866 15.37 4.68679C16.0561 4.26491 16.8594 4.05398 17.7798 4.05398C18.7003 4.05398 19.5036 4.26491 20.1896 4.68679C20.8757 5.10866 21.4084 5.70099 21.7876 6.46378C22.1669 7.22656 22.3565 8.11719 22.3565 9.13565C22.3565 10.1499 22.1669 11.0362 21.7876 11.7947C21.4084 12.5533 20.8757 13.1435 20.1896 13.5653C19.5036 13.9872 18.7003 14.1982 17.7798 14.1982ZM17.7862 12.5938C18.3828 12.5938 18.8771 12.4361 19.2692 12.1207C19.6612 11.8054 19.951 11.3857 20.1385 10.8615C20.3303 10.3374 20.4261 9.75994 20.4261 9.12926C20.4261 8.50284 20.3303 7.92756 20.1385 7.40341C19.951 6.875 19.6612 6.45099 19.2692 6.13139C18.8771 5.81179 18.3828 5.65199 17.7862 5.65199C17.1854 5.65199 16.6868 5.81179 16.2905 6.13139C15.8984 6.45099 15.6065 6.875 15.4148 7.40341C15.2273 7.92756 15.1335 8.50284 15.1335 9.12926C15.1335 9.75994 15.2273 10.3374 15.4148 10.8615C15.6065 11.3857 15.8984 11.8054 16.2905 12.1207C16.6868 12.4361 17.1854 12.5938 17.7862 12.5938ZM24.4899 14V4.18182H26.3244V5.77983H26.4458C26.6504 5.23864 26.9849 4.81676 27.4494 4.5142C27.9139 4.20739 28.47 4.05398 29.1177 4.05398C29.774 4.05398 30.3237 4.20739 30.7669 4.5142C31.2143 4.82102 31.5446 5.2429 31.7576 5.77983H31.8599C32.0943 5.25568 32.4672 4.83807 32.9785 4.52699C33.4899 4.21165 34.0993 4.05398 34.8066 4.05398C35.6973 4.05398 36.4238 4.3331 36.9863 4.89134C37.5531 5.44957 37.8365 6.29119 37.8365 7.41619V14H35.9252V7.59517C35.9252 6.9304 35.7441 6.44886 35.3819 6.15057C35.0197 5.85227 34.5872 5.70312 34.0843 5.70312C33.4622 5.70312 32.9785 5.89489 32.6333 6.27841C32.2882 6.65767 32.1156 7.1456 32.1156 7.74219V14H30.2108V7.47372C30.2108 6.94105 30.0446 6.51278 29.7122 6.18892C29.3798 5.86506 28.9473 5.70312 28.4146 5.70312C28.0524 5.70312 27.7179 5.79901 27.411 5.99077C27.1085 6.17827 26.8635 6.44034 26.676 6.77699C26.4927 7.11364 26.4011 7.50355 26.4011 7.94673V14H24.4899ZM44.6296 14.1982C43.6623 14.1982 42.8292 13.9915 42.1303 13.5781C41.4357 13.1605 40.8988 12.5746 40.5195 11.8203C40.1445 11.0618 39.957 10.1733 39.957 9.15483C39.957 8.14915 40.1445 7.26278 40.5195 6.49574C40.8988 5.72869 41.4272 5.12997 42.1048 4.69957C42.7866 4.26918 43.5835 4.05398 44.4954 4.05398C45.0494 4.05398 45.5863 4.1456 46.1062 4.32884C46.6261 4.51207 47.0927 4.79972 47.506 5.19176C47.9194 5.58381 48.2454 6.09304 48.484 6.71946C48.7227 7.34162 48.842 8.09801 48.842 8.98864V9.66619H41.0373V8.23438H46.9691C46.9691 7.73153 46.8668 7.28622 46.6623 6.89844C46.4577 6.50639 46.1701 6.19744 45.7994 5.97159C45.4329 5.74574 45.0025 5.63281 44.5082 5.63281C43.9712 5.63281 43.5025 5.76491 43.1019 6.02912C42.7056 6.28906 42.3988 6.62997 42.1815 7.05185C41.9684 7.46946 41.8619 7.9233 41.8619 8.41335V9.53196C41.8619 10.1882 41.9769 10.7464 42.207 11.2067C42.4414 11.6669 42.7674 12.0185 43.185 12.2614C43.6026 12.5 44.0906 12.6193 44.6488 12.6193C45.011 12.6193 45.3413 12.5682 45.6396 12.4659C45.9379 12.3594 46.1957 12.2017 46.413 11.9929C46.6303 11.7841 46.7965 11.5263 46.9116 11.2195L48.7205 11.5455C48.5756 12.0781 48.3157 12.5447 47.9407 12.9453C47.57 13.3416 47.1033 13.6506 46.5408 13.8722C45.9826 14.0895 45.3455 14.1982 44.6296 14.1982Z" fill="white"/>
</svg>
