<svg width="47" height="15" viewBox="0 0 47 15" fill="none" xmlns="http://www.w3.org/2000/svg">
<path d="M11.0043 0.909091V14H9.18892L2.5348 4.39915H2.41335V14H0.43821V0.909091H2.26634L8.92685 10.5227H9.0483V0.909091H11.0043ZM17.9636 14.1982C16.9963 14.1982 16.1632 13.9915 15.4643 13.5781C14.7697 13.1605 14.2328 12.5746 13.8535 11.8203C13.4785 11.0618 13.291 10.1733 13.291 9.15483C13.291 8.14915 13.4785 7.26278 13.8535 6.49574C14.2328 5.72869 14.7612 5.12997 15.4387 4.69957C16.1206 4.26918 16.9174 4.05398 17.8294 4.05398C18.3833 4.05398 18.9203 4.1456 19.4402 4.32884C19.96 4.51207 20.4267 4.79972 20.84 5.19176C21.2534 5.58381 21.5794 6.09304 21.818 6.71946C22.0566 7.34162 22.176 8.09801 22.176 8.98864V9.66619H14.3713V8.23438H20.3031C20.3031 7.73153 20.2008 7.28622 19.9963 6.89844C19.7917 6.50639 19.5041 6.19744 19.1333 5.97159C18.7669 5.74574 18.3365 5.63281 17.8422 5.63281C17.3052 5.63281 16.8365 5.76491 16.4359 6.02912C16.0396 6.28906 15.7328 6.62997 15.5154 7.05185C15.3024 7.46946 15.1958 7.9233 15.1958 8.41335V9.53196C15.1958 10.1882 15.3109 10.7464 15.541 11.2067C15.7754 11.6669 16.1014 12.0185 16.519 12.2614C16.9366 12.5 17.4245 12.6193 17.9828 12.6193C18.345 12.6193 18.6752 12.5682 18.9735 12.4659C19.2718 12.3594 19.5297 12.2017 19.747 11.9929C19.9643 11.7841 20.1305 11.5263 20.2456 11.2195L22.0545 11.5455C21.9096 12.0781 21.6497 12.5447 21.2747 12.9453C20.9039 13.3416 20.4373 13.6506 19.8748 13.8722C19.3166 14.0895 18.6795 14.1982 17.9636 14.1982ZM26.4075 14L23.5183 4.18182H25.4934L27.4174 11.392H27.5133L29.4437 4.18182H31.4189L33.3365 11.3601H33.4324L35.3436 4.18182H37.3187L34.4359 14H32.4863L30.492 6.91122H30.345L28.3507 14H26.4075ZM46.4897 6.57884L44.7575 6.88565C44.685 6.66406 44.57 6.45312 44.4123 6.25284C44.2589 6.05256 44.0501 5.88849 43.7859 5.76065C43.5217 5.63281 43.1914 5.56889 42.7951 5.56889C42.2539 5.56889 41.8022 5.69034 41.44 5.93324C41.0778 6.17187 40.8967 6.48082 40.8967 6.86009C40.8967 7.18821 41.0181 7.45241 41.261 7.6527C41.5039 7.85298 41.896 8.01705 42.4371 8.14489L43.9968 8.50284C44.9002 8.71165 45.5735 9.03338 46.0167 9.46804C46.4599 9.9027 46.6815 10.4673 46.6815 11.1619C46.6815 11.75 46.511 12.2741 46.1701 12.7344C45.8335 13.1903 45.3626 13.5483 44.7575 13.8082C44.1566 14.0682 43.4599 14.1982 42.6673 14.1982C41.5678 14.1982 40.6708 13.9638 39.9762 13.495C39.2816 13.022 38.8555 12.3509 38.6978 11.4815L40.5451 11.2003C40.6602 11.6818 40.8967 12.0462 41.2546 12.2933C41.6126 12.5362 42.0792 12.6577 42.6545 12.6577C43.2809 12.6577 43.7816 12.5277 44.1566 12.2678C44.5316 12.0036 44.7191 11.6818 44.7191 11.3026C44.7191 10.9957 44.604 10.7379 44.3739 10.5291C44.1481 10.3203 43.8008 10.1626 43.332 10.0561L41.6701 9.69176C40.7539 9.48295 40.0763 9.15057 39.6374 8.6946C39.2028 8.23864 38.9854 7.66122 38.9854 6.96236C38.9854 6.38281 39.1474 5.87571 39.4712 5.44105C39.7951 5.00639 40.2425 4.66761 40.8136 4.42472C41.3846 4.17756 42.0387 4.05398 42.7759 4.05398C43.837 4.05398 44.6722 4.28409 45.2816 4.74432C45.891 5.20028 46.2937 5.81179 46.4897 6.57884Z" fill="white"/>
</svg>
